<svg id="Layer_1" data-name="Layer 1" xmlns="http://www.w3.org/2000/svg" xmlns:xlink="http://www.w3.org/1999/xlink" viewBox="0 0 754.67 690.73"><defs><style>.cls-1{fill:url(#linear-gradient);}.cls-2,.cls-3,.cls-4{fill:#fff;}.cls-3{stroke:#4b2142;}.cls-3,.cls-4{stroke-miterlimit:10;}.cls-4{stroke:#000;}.cls-5{fill:#f4d122;}.cls-6{fill:#373737;}.cls-7{fill:url(#linear-gradient-2);}.cls-8{fill:#ccd6eb;}.cls-9{fill:#f7b239;}.cls-10{fill:#ba7404;}.cls-11{fill:#e50a2f;}.cls-12{fill:#f9e5e9;}</style><linearGradient id="linear-gradient" x1="789.96" y1="744.41" x2="789.96" y2="186.01" gradientUnits="userSpaceOnUse"><stop offset="0" stop-color="#4b2142"/><stop offset="0.2" stop-color="#422b3d"/><stop offset="0.53" stop-color="#3a3438"/><stop offset="1" stop-color="#373737"/></linearGradient><linearGradient id="linear-gradient-2" x1="1029.05" y1="329.84" x2="1041.62" y2="166.83" gradientTransform="translate(-22.76 82.48) rotate(-4.54)" gradientUnits="userSpaceOnUse"><stop offset="0.12" stop-color="#f7b239"/><stop offset="0.47" stop-color="#f5b139"/><stop offset="0.59" stop-color="#eeac39"/><stop offset="0.68" stop-color="#e3a539"/><stop offset="0.75" stop-color="#d29a39"/><stop offset="0.81" stop-color="#bc8c38"/><stop offset="0.87" stop-color="#a07b38"/><stop offset="0.92" stop-color="#806638"/><stop offset="0.96" stop-color="#5c4f37"/><stop offset="1" stop-color="#373737"/></linearGradient></defs><path class="cls-1" d="M645,362.18S593.89,186.86,771.42,186c175.41-.84,134.81,164.68,134.81,164.68s301,390.64-107.23,393.7S645,362.18,645,362.18Z" transform="translate(-361.56 -57.59)"/><path class="cls-2" d="M706.31,356.31S636.53,232.22,757.63,228.9c0,0,18.19,19.72,21.37,39.92,0,0,6.8-40.6,21.53-39.92,0,0,108.76-17.61,53.61,126.39,0,0,163.66,343.66-62,342.64S706.31,356.31,706.31,356.31Z" transform="translate(-361.56 -57.59)"/><circle cx="372.71" cy="225.7" r="15.45"/><path d="M802.35,283.29A16.73,16.73,0,0,0,819.07,300c9.24,0,16-7.52,16.73-16.72.7-8.75-6.27-15.88-16.73-16.73C809.87,265.82,802.35,274.05,802.35,283.29Z" transform="translate(-361.56 -57.59)"/><circle class="cls-3" cx="368.49" cy="221.08" r="5.08"/><circle class="cls-3" cx="369.43" cy="232.74" r="1.93"/><circle class="cls-3" cx="377.91" cy="229.99" r="2.75"/><circle class="cls-4" cx="368.49" cy="221.08" r="5.08"/><circle class="cls-4" cx="369.43" cy="232.74" r="1.93"/><circle class="cls-4" cx="377.91" cy="229.99" r="2.75"/><path class="cls-5" d="M754.19,316a5.61,5.61,0,0,1,4.72-8.54l16.61-.17,16.6-.17a5.61,5.61,0,0,1,4.89,8.45l-8,13.64-8.32,14.15a5.61,5.61,0,0,1-9.61.1l-8.59-14Z" transform="translate(-361.56 -57.59)"/><path class="cls-6" d="M938.15,404.73,969,463.08c64-16.17,77.34-69.45,77.34-69.45-7.9-43-108.22,11.1-108.22,11.1" transform="translate(-361.56 -57.59)"/><circle class="cls-4" cx="453.99" cy="220.23" r="5.08"/><circle class="cls-4" cx="454.92" cy="231.89" r="1.93"/><circle class="cls-4" cx="463.41" cy="229.13" r="2.75"/><rect class="cls-7" x="1020.36" y="185.83" width="17.62" height="284.94" transform="translate(-332.35 -138.01) rotate(4.54)"/><path class="cls-8" d="M1114.62,167.12c5.44,11.68-3.62,25-16.31,24l-54.3-4.37-54.31-4.38c-12.69-1-19.5-15.62-12.26-26.28l31-45.6,31-45.6a16.41,16.41,0,0,1,28.56,2.3l23.3,50Z" transform="translate(-361.56 -57.59)"/><path class="cls-9" d="M636.24,232.65H911.47S913.93,125.89,773.85,129,636.24,232.65,636.24,232.65Z" transform="translate(-361.56 -57.59)"/><rect class="cls-10" x="396.63" y="63.83" width="35.4" height="73.65" rx="9.71"/><rect class="cls-10" x="270.37" y="163.91" width="283.57" height="14.98" rx="6.13"/><path class="cls-11" d="M693,721.15A20.35,20.35,0,0,1,670.09,748l-145.93-27-145.93-27a20.35,20.35,0,0,1-11.77-33.23l96.36-112.87L559.17,435a20.36,20.36,0,0,1,34.67,6.42l49.57,139.88Z" transform="translate(-361.56 -57.59)"/><path class="cls-12" d="M642.63,684.33a13.68,13.68,0,0,1-15.38,18l-98-18.15-98-18.15a13.68,13.68,0,0,1-7.92-22.33L488,567.89l64.75-75.83A13.67,13.67,0,0,1,576,496.37l33.3,94Z" transform="translate(-361.56 -57.59)"/><path d="M579.6,677.7c-13.07,2.12-29.2,1.62-46.13-2s-31.59-9.72-42.61-16.95" transform="translate(-361.56 -57.59)"/><path d="M490.86,658.73a66.06,66.06,0,0,1-9.78-43.38q.38-3.08,1-6.16c7.63-35.47,42-58.16,76.66-50.7s56.67,42.28,49,77.74q-.69,3.16-1.65,6.2A66.05,66.05,0,0,1,579.6,677.7" transform="translate(-361.56 -57.59)"/><path class="cls-12" d="M538.5,677.31c1.34.22,3,.46,4.34.62,2.87.36,5.72.6,8.53.72l2.66.18h0l.14-.1a29.51,29.51,0,0,0,11.59-16.48c.14-.52.27-1,.38-1.57.18-.84.32-1.67.43-2.5a30,30,0,0,0-.57-10.67,29.45,29.45,0,0,0-5-10.63,28.89,28.89,0,0,0-6.64-6.46A28.42,28.42,0,0,0,544.33,626l-.25-.05a28.46,28.46,0,0,0-10.67-.26l-.83.15a28.86,28.86,0,0,0-9.19,3.54,29.27,29.27,0,0,0-8.16,7.22,30.43,30.43,0,0,0-2.06,3,29.73,29.73,0,0,0-3.08,7.24c-.15.55-.29,1.11-.41,1.68a29.54,29.54,0,0,0,2,18.47v0a24.62,24.62,0,0,0,1.24,2.65c-.07-.11,0,0,0,0h0S516.38,672.65,538.5,677.31Z" transform="translate(-361.56 -57.59)"/></svg>