<svg id="Layer_1" data-name="Layer 1" xmlns="http://www.w3.org/2000/svg" xmlns:xlink="http://www.w3.org/1999/xlink" viewBox="0 0 315.57 450.83"><defs><style>.cls-1{fill:url(#linear-gradient);}.cls-2{clip-path:url(#clip-path);}.cls-3{fill:url(#linear-gradient-3);}.cls-4{fill:#151316;}.cls-5{fill:#101115;}.cls-6{fill:url(#linear-gradient-4);}.cls-7{fill:url(#linear-gradient-5);}.cls-8{fill:#e9e9f2;}.cls-10,.cls-12,.cls-13,.cls-8{stroke:#000;stroke-miterlimit:10;}.cls-11,.cls-13,.cls-9{stroke-linecap:round;}.cls-11,.cls-9{stroke-linejoin:round;}.cls-9{fill:url(#linear-gradient-6);stroke:url(#linear-gradient-7);}.cls-10{fill:#ece8e5;}.cls-11{fill:url(#linear-gradient-8);stroke:url(#linear-gradient-9);}.cls-12,.cls-13{fill:none;}.cls-14{fill:url(#linear-gradient-10);}.cls-15{fill:url(#linear-gradient-11);}.cls-16{fill:url(#linear-gradient-12);}.cls-17{fill:url(#linear-gradient-13);}</style><linearGradient id="linear-gradient" x1="635.27" y1="542.23" x2="635.27" y2="226.65" gradientUnits="userSpaceOnUse"><stop offset="0" stop-color="#669ff6"/><stop offset="0.2" stop-color="#6f9aec"/><stop offset="0.54" stop-color="#878cd1"/><stop offset="0.98" stop-color="#ae76a6"/><stop offset="0.98" stop-color="#ae76a6"/></linearGradient><clipPath id="clip-path" transform="translate(-477.48 -226.65)"><rect class="cls-1" x="477.48" y="226.65" width="315.57" height="315.57" rx="11.4"/></clipPath><linearGradient id="linear-gradient-3" x1="649.19" y1="444.89" x2="639.6" y2="533.59" gradientUnits="userSpaceOnUse"><stop offset="0" stop-color="#40191c"/><stop offset="0.4" stop-color="#42191d"/><stop offset="0.54" stop-color="#491921"/><stop offset="0.64" stop-color="#541a27"/><stop offset="0.72" stop-color="#651a30"/><stop offset="0.79" stop-color="#7b1b3c"/><stop offset="0.86" stop-color="#971c4b"/><stop offset="0.91" stop-color="#b71c5c"/><stop offset="0.96" stop-color="#db1d6f"/><stop offset="0.98" stop-color="#ed1e79"/></linearGradient><linearGradient id="linear-gradient-4" x1="606.04" y1="489.33" x2="653.34" y2="489.33" gradientUnits="userSpaceOnUse"><stop offset="0" stop-color="#eacdbf"/><stop offset="0.37" stop-color="#e9c9bb"/><stop offset="0.73" stop-color="#e7bdb0"/><stop offset="1" stop-color="#e5afa3"/></linearGradient><linearGradient id="linear-gradient-5" x1="641.36" y1="331.66" x2="596.24" y2="501.04" xlink:href="#linear-gradient-4"/><linearGradient id="linear-gradient-6" x1="648.75" y1="390.3" x2="669.8" y2="390.3" gradientUnits="userSpaceOnUse"><stop offset="0" stop-color="#29abe2"/><stop offset="0.22" stop-color="#2ba7dd"/><stop offset="0.48" stop-color="#309dcf"/><stop offset="0.75" stop-color="#398bb8"/><stop offset="0.9" stop-color="#3f7fa8"/></linearGradient><linearGradient id="linear-gradient-7" x1="663.41" y1="371.01" x2="654.29" y2="408.48" gradientUnits="userSpaceOnUse"><stop offset="0" stop-color="#4089f4"/><stop offset="0.2" stop-color="#4589f1"/><stop offset="0.44" stop-color="#538ae7"/><stop offset="0.69" stop-color="#6a8ad6"/><stop offset="0.9" stop-color="#838bc5"/></linearGradient><linearGradient id="linear-gradient-8" x1="576.24" y1="378.8" x2="598.33" y2="378.8" xlink:href="#linear-gradient-6"/><linearGradient id="linear-gradient-9" x1="575.74" y1="378.8" x2="598.83" y2="378.8" xlink:href="#linear-gradient-7"/><linearGradient id="linear-gradient-10" x1="664.07" y1="256.39" x2="627.46" y2="595" gradientUnits="userSpaceOnUse"><stop offset="0" stop-color="#40191c"/><stop offset="0.36" stop-color="#42191d"/><stop offset="0.49" stop-color="#491921"/><stop offset="0.58" stop-color="#541a27"/><stop offset="0.66" stop-color="#651a30"/><stop offset="0.72" stop-color="#7b1b3c"/><stop offset="0.78" stop-color="#971c4b"/><stop offset="0.83" stop-color="#b71c5c"/><stop offset="0.87" stop-color="#db1d6f"/><stop offset="0.89" stop-color="#ed1e79"/></linearGradient><linearGradient id="linear-gradient-11" x1="599.11" y1="250.1" x2="514.67" y2="597.1" xlink:href="#linear-gradient-10"/><linearGradient id="linear-gradient-12" x1="752.74" y1="340.27" x2="726.94" y2="578.93" gradientUnits="userSpaceOnUse"><stop offset="0" stop-color="#40191c"/><stop offset="0.34" stop-color="#42191d"/><stop offset="0.46" stop-color="#491921"/><stop offset="0.55" stop-color="#541a27"/><stop offset="0.62" stop-color="#651a30"/><stop offset="0.68" stop-color="#7b1b3c"/><stop offset="0.74" stop-color="#971c4b"/><stop offset="0.79" stop-color="#b71c5c"/><stop offset="0.83" stop-color="#db1d6f"/><stop offset="0.85" stop-color="#ed1e79"/></linearGradient><linearGradient id="linear-gradient-13" x1="778.33" y1="356.54" x2="754.78" y2="574.36" gradientUnits="userSpaceOnUse"><stop offset="0" stop-color="#40191c"/><stop offset="0.34" stop-color="#42191d"/><stop offset="0.46" stop-color="#491921"/><stop offset="0.55" stop-color="#541a27"/><stop offset="0.62" stop-color="#651a30"/><stop offset="0.68" stop-color="#7b1b3c"/><stop offset="0.73" stop-color="#971c4b"/><stop offset="0.78" stop-color="#b71c5c"/><stop offset="0.82" stop-color="#db1d6f"/><stop offset="0.84" stop-color="#ed1e79"/></linearGradient></defs><rect class="cls-1" width="315.57" height="315.57" rx="11.4"/><g class="cls-2"><path class="cls-3" d="M550.32,477.93s6.27,24.05,4.55,42.34c0,0,11.65-18.35,10.52-29.07,0,0,6.51,6.6,3.23,18.35,0,0,13.13-27.44,30.2-16.53,0,0,126.89,17.3,134.52,43.85,0,0,4.43-47.7,25.28,2.09l-2.81-80.48L576,435.51,528.57,454.4l21.75,23.53" transform="translate(-477.48 -226.65)"/><path d="M694.93,493.38s37.13,22.85,42.24,54c0,0,3.32,4.85-36.51,25.28L698,537.94Z" transform="translate(-477.48 -226.65)"/><path class="cls-4" d="M531.38,535.77s4.09,32.17,29.11,33.7l17.36-26.56s-5.87-39.7,3.63-51.81Z" transform="translate(-477.48 -226.65)"/><path class="cls-5" d="M609.35,485.33l-28.44,5.88s-7.65,7.66-5.61,54.13c0,0-18.39,76.09-7.66,115.4,0,0,81.7,39.32,157.79-2.55,1-.14-24.11-52.05-28.49-143,0,0-1-5.08-2-21.82,0,0-31.55-11-47.75-9.95" transform="translate(-477.48 -226.65)"/><path class="cls-6" d="M609.56,486a4.9,4.9,0,0,1-1.25,4.87,2.39,2.39,0,0,1-.7.47l-.18.08a2.3,2.3,0,0,0,.41,4.36c9.85,2.21,28,4.45,44.25-3.59a2.3,2.3,0,0,0-.05-4.12c-2.23-1.1-4.55-2.83-5.08-5.4a2.3,2.3,0,0,0-2.8-1.8c-5.89,1.46-19.83,4.32-32,2.24A2.3,2.3,0,0,0,609.56,486Z" transform="translate(-477.48 -226.65)"/><path id="face" class="cls-7" d="M546.83,348.37s-12.78,56.14-13.4,81.08c-.38,15.23,26.71,44,70.62,54.22,28.5,6.64,97.5-1.29,104.66-34.09,0,0-11.41-73,0-79.68,0,0-111.23-25.84-106.74-50.56,0,0-24.72,31.46-51.69,32.58S546.83,348.37,546.83,348.37Z" transform="translate(-477.48 -226.65)"/><path class="cls-8" d="M636.84,406.83s18.16.76,28.38,4.47c0,0,16.06-41.09-8.68-41.75S636.84,406.83,636.84,406.83Z" transform="translate(-477.48 -226.65)"/><path d="M682.58,374.56S675.94,379,665,372.2c0,0,5.47,3.87,5.38,10.53C670.34,382.73,678.5,383.24,682.58,374.56Z" transform="translate(-477.48 -226.65)"/><path class="cls-9" d="M652.69,370.44s-8.87,15.1,0,37.14l12.36,2.78S681.68,367,652.69,370.44Z" transform="translate(-477.48 -226.65)"/><ellipse cx="183.25" cy="162.21" rx="3.63" ry="6.17"/><path class="cls-10" d="M592.92,400.17s-17.43-5.19-28.29-5c0,0-1.82-44.08,21.79-36.65S592.92,400.17,592.92,400.17Z" transform="translate(-477.48 -226.65)"/><path class="cls-11" d="M582,358.41s-10.52,10.26-3,37.43l13.73,3.36S610.9,363.63,582,358.41Z" transform="translate(-477.48 -226.65)"/><ellipse cx="110.21" cy="151.61" rx="3.63" ry="6.17"/><path d="M560.16,354.77s4.83,6.38,17.43,3.5c0,0-6.43,1.88-8.51,8.21C569.08,366.48,561.2,364.31,560.16,354.77Z" transform="translate(-477.48 -226.65)"/><path class="cls-12" d="M580.14,436.76s4.16,12.14,28.68,6.48c0,0,21.22,11.46,31,1.76" transform="translate(-477.48 -226.65)"/><path class="cls-13" d="M611.55,402.58s-7.6,5.31-4,11.44a7.83,7.83,0,0,0,5.68,1" transform="translate(-477.48 -226.65)"/></g><path id="hair" class="cls-14" d="M748.12,529.82l12.34-32s19.48,18.52,23.54,39.57c3,15.33,4.39-22.89-1.13-41.62l-5.52-18.73s26.92-221.48-112-219.59c0,0-104-54.73-153.71,76.11-6.47,17-10.6,38.32-14.89,62.12,0,0-8.57,44.68,4.48,74,0,0-1,8-3,27.76-1.6,15.9,24.38,70.3,24.38,70.3s-5-22-3-44.65c0,0,4.85,22.72,22.72,39.06,0,0-13-51.32-7.91-62.3,0,0,3.83,6.13,1.27,17.37,0,0,20.56-32.13,14-45.2,0,0-16.87-36.93-17.23-41.82s4.48-55.68,16.85-77.52c0,0,44-10.14,51.69-32.59,0,0-19.6,40.7,95.75,48.63,0,0-11.23,36.67,2.76,96,2.36,10,2.6,16.23,8.23,27.28,1.68,3.3,4.07,5.8,4.53,13.05.06,1,1.39,10.62.49,18.36,0,0,.34,30.56-9.37,36.18,0,0,25.63-21.75,28.08-40.34,2.35-17.82-1.78-30-1.78-30C730.53,486.11,751,506.53,748.12,529.82Z" transform="translate(-477.48 -226.65)"/><path class="cls-15" d="M499.28,378.63s-13.34,57.23,21.89,79.7c0,0,9.45,7.61,13.53,29.56,0,0,19.15,77.37,15.07,86.56,0,0,15.9-84.84-7.37-125,0,0-15.85-54.17,7.76-96.95,0,0,42-7.07,51.68-32.58,0,0-2.6-40,64.32-62.64C666.16,257.29,537.62,191.7,499.28,378.63Z" transform="translate(-477.48 -226.65)"/><path class="cls-16" d="M726.19,333.43s12.64,89.36,3.13,131.74c0,0-1.9,27.76,2.95,42.91,0,0,12.26,36.75,9,59.7-2,14.17,15-78.4,21.59-68.7C762.85,499.08,764.49,346.19,726.19,333.43Z" transform="translate(-477.48 -226.65)"/><path class="cls-17" d="M765.65,351.94a.68.68,0,0,0-1.33.16c-1,12-5.3,55.57-13.62,78.93-9.35,26.26-1.58,60.44-.51,63.5,0,.12,3.13,7.29,6.13,10,2.12,1.89,6.54,40.83,6.54,59.74,0,6.39,10.23-27.6,10.57-28.08,5.92-8.44,18.05-20.9,1.79-76.68a.5.5,0,0,1,0-.24C775.45,456.19,780.39,394.7,765.65,351.94Z" transform="translate(-477.48 -226.65)"/></svg>