<svg id="Layer_1" data-name="Layer 1" xmlns="http://www.w3.org/2000/svg" viewBox="0 0 1240.64 1142.32"><defs><style>.cls-1,.cls-3{fill:#ac9cf6;}.cls-2{fill:none;stroke:#ac9cf6;stroke-linecap:round;stroke-width:10px;}.cls-2,.cls-3{stroke-miterlimit:10;}.cls-3{stroke:#020202;}</style></defs><path class="cls-1" d="M1339.75,705a620,620,0,0,0-34.89-194.4v0l-.08-.21A620.31,620.31,0,0,0,718.7,96.21l-.52-.11-1.23.12c-3,0-5.94,0-8.92.09a621,621,0,0,0-581,435.92l-.06.21v0A619.57,619.57,0,0,0,99.32,728a628.56,628.56,0,0,0,8.78,93.65,618.78,618.78,0,0,0,182.59,343,10.26,10.26,0,0,0,1.6,1.25,10.49,10.49,0,0,0,1.84.91c21.65,8.13,44.05,15.73,66.58,22.59,35.48,10.81,68.54,17.88,102.09,24.76a10.8,10.8,0,0,0,2,.2,10,10,0,0,0,2-19.8c-31.85-6.52-63.22-13.23-96.45-23.14a434.29,434.29,0,0,1-54.85-212c0-14.15.68-28.48,2-42.59,8.44-87.75,42.56-169.23,98.67-235.65l.07-.09c76.82-90.88,187.47-143,303.61-143,111.56,0,219.24,48.71,295.45,133.64l.08.1h0c58.15,64.82,94.64,145.4,105.5,233a441,441,0,0,1,3.37,54.55,434.31,434.31,0,0,1-54.84,212c-31.1,9.33-67.23,19.63-103,26.88a10,10,0,0,0,2,19.8,9.76,9.76,0,0,0,2-.2c38-7.71,76.24-18.73,108.61-28.49,21.85-6.58,43.67-13.87,64.86-21.66l.07,0c.23-.08.45-.18.67-.28l.25-.12a5.86,5.86,0,0,0,.55-.3l.33-.19.32-.22.5-.35.11-.09c.22-.18.44-.37.64-.56h0a619.14,619.14,0,0,0,187-366.74A628.55,628.55,0,0,0,1339.75,705Zm-24.61,87q-29.72,21.19-61.93,40.24a269.58,269.58,0,0,0,9.51-75.29c-.28-28.91-4.63-59.45-12.92-90.77a449.85,449.85,0,0,0-31-83.08,732.31,732.31,0,0,0,71.74-52.3,600.34,600.34,0,0,1,29.18,174.57A607.64,607.64,0,0,1,1315.14,792ZM1139,889.54c-12.48-81.69-46.43-157.11-98.86-219.66a895.11,895.11,0,0,0,94-39.27,9.83,9.83,0,0,0,2.28-1.11q33.85-16.61,65.37-35.72a435.24,435.24,0,0,1,28.84,78c12,45.56,21,112.6-3.36,175.22A959.58,959.58,0,0,1,1139,889.54ZM991.8,429.62Q956.21,441.93,918.72,451c-4.06-74-41.47-122.65-72.94-150.81A258.52,258.52,0,0,0,805,270.46a726.35,726.35,0,0,0,126-29.17,247.52,247.52,0,0,1,69.68,29.12c47.1,28.9,75.86,68.92,85.61,119a735.26,735.26,0,0,1-91,38.92A10.19,10.19,0,0,0,991.8,429.62ZM837.36,466.56a10.15,10.15,0,0,0-1.55.22,896.35,896.35,0,0,1-107.14,8.38,867.47,867.47,0,0,1-210.38-21.69C522.8,398.89,543.51,352.61,580,315.8c24.32-24.58,48.36-36.94,55.39-40.25Q665.78,278,696.7,278c4.89,0,9.8-.05,14.7-.14q29-.54,57.6-3.2c7.54,3.08,35.9,15.66,64,41,41.66,37.53,63.82,84.59,66,140Q868.63,462.14,837.36,466.56ZM299.1,902a945.14,945.14,0,0,1-107.86-49.68c-22.9-69.42-24-134.55-3-188.55,11.66-30,27.26-49.22,35.07-57.59q18.24,10.5,37.32,20.18a10.13,10.13,0,0,0,2.39,1.21,881.71,881.71,0,0,0,128.5,52.33C341.05,743.9,309.31,820.16,299.1,902ZM148.22,531.64a596.32,596.32,0,0,1,94.57-180c45.74,34.07,97.35,62.59,154.07,85.17a252.41,252.41,0,0,0-53,25.72c-36.17,23.31-79.26,66.09-86.61,139.57A729.79,729.79,0,0,1,148.22,531.64ZM339.29,388.36c-3.08-40.11,16.58-76.72,58.54-108.91,28.06-21.52,57.71-34.15,67.21-37.91q24.72,8.21,50.46,14.62,12.13,3,24.42,5.61c.18.05.35.07.53.11q30.09,6.36,61,10.22a237.61,237.61,0,0,0-35.05,29c-27.55,27.62-60.86,75.22-67.74,147.63C442,434.15,388.31,413.86,339.29,388.36Zm588.39-167-.58.19a686.63,686.63,0,0,1-68.17,18.86c-20.6-62.16-55.75-97.59-82.21-116.54q-4.23-3-8.33-5.66a598.47,598.47,0,0,1,238,70.91A636.57,636.57,0,0,1,927.68,221.34ZM711,257.85a740.84,740.84,0,0,1-153.72-13c31.63-59.21,72-90.76,101.14-107s52.59-20.6,58.7-21.54c11.63,3.07,87.54,26.72,122.08,128.13A749.31,749.31,0,0,1,711,257.85ZM536.94,240.64c-5.55-1.24-11.1-2.52-16.6-3.89A646.9,646.9,0,0,1,413.28,200.1a598.31,598.31,0,0,1,235.53-79.72C616.21,138.53,571.15,173.93,536.94,240.64Zm655.67,106.28a596.89,596.89,0,0,1,91,163.66c-42.07,35.67-90.41,67.53-143.2,94.55-3.61-52.28-27.46-98.44-69.57-134.27a252.74,252.74,0,0,0-47.42-31.69C1086,415.15,1142.73,384.22,1192.61,346.92ZM1180,331.36a648.21,648.21,0,0,1-75.28,48.33c-11.92-52.48-44-96-93.52-126.33A271.19,271.19,0,0,0,962.68,230a644.11,644.11,0,0,0,64.57-29A600.57,600.57,0,0,1,1180,331.36ZM392.93,212.77q21.75,10.28,44.72,19a307.19,307.19,0,0,0-51.58,31.49c-43.08,32.9-66,72-67,114.1A612.9,612.9,0,0,1,255.24,336,601.16,601.16,0,0,1,392.93,212.77ZM142,552.13a728.68,728.68,0,0,0,63.74,43.66c-9.44,10.72-24.16,30.45-35.66,59.58C159.58,682,153.91,711,153.21,741.65s3.63,63.07,12.85,96.57q-20-11.64-38.93-24.16a608.17,608.17,0,0,1-7.81-86.4A600.23,600.23,0,0,1,142,552.13ZM343.22,1163c-13.57-4.47-27-9.18-40.16-14.09-87.42-84.19-146.19-190.16-170.91-307.8q22.24,14,45.68,26.77c.2.13.42.24.63.35A965.21,965.21,0,0,0,297,922.63c-1,12.27-1.47,24.65-1.47,36.9A455.44,455.44,0,0,0,343.22,1163ZM405.31,663.3A864.82,864.82,0,0,1,276.56,612c3.32-56.5,29.4-101,77.6-132.28a234.94,234.94,0,0,1,74.22-31.14q13.44,4.69,27.23,9A834.94,834.94,0,0,0,559,482.34c-6.31,14.43-11.94,38.94,2.32,67.7q-9.78,4.11-19.41,8.73A423.92,423.92,0,0,0,405.31,663.3ZM580,542.7c-13.73-26.39-5.47-47.87-.43-57a896.54,896.54,0,0,0,132,9.65q8.68,0,17.4-.16a911.18,911.18,0,0,0,105.65-8.06c6.64,6.76,21.58,25.38,18.15,53.15A411.47,411.47,0,0,0,580,542.7ZM892.08,556q-10-4.6-20.09-8.65a82.74,82.74,0,0,0-14.27-63.7,845.29,845.29,0,0,0,131.74-32.32c2.41-.8,4.82-1.62,7.22-2.44a230.3,230.3,0,0,1,61.7,37.64c40.34,34.53,61.32,77.67,62.45,128.29a881.37,881.37,0,0,1-95,38.84A422.89,422.89,0,0,0,892.08,556Zm243,593.75c-12.66,4.63-25.55,9.08-38.53,13.3a455.46,455.46,0,0,0,47.75-203.54,464.5,464.5,0,0,0-2.64-49.44c61-25.31,117.88-55.81,169.44-90.88A602,602,0,0,1,1135.09,1149.76Z" transform="translate(-99.21 -96.1)"/><path class="cls-2" d="M784.55,1233.38c16.24-.85,36.22-2.22,52.22-3.68q51.68-4.7,101.54-13.42l31.53-4.64a.38.38,0,0,1,.09-.09l1.37-1.49c54.52-59.93,89.44-139.4,94-227.27q.53-9.82.52-19.79,0-15.69-1.27-31a369,369,0,0,0-17.9-87.3,361.76,361.76,0,0,0-100.25-153.5,343.68,343.68,0,0,0-93.81-60.32,332.21,332.21,0,0,0-129-27.18c-1,0-2,0-3,0a332.16,332.16,0,0,0-125.34,24.43c-3.14,1.25-6.27,2.58-9.36,3.95a344.09,344.09,0,0,0-98.55,66.05A359.28,359.28,0,0,0,410.2,805.56a363,363,0,0,0-16.48,41.59A370.31,370.31,0,0,0,376,941.85q-.6,10.5-.6,21.14c0,81.14,25.84,156,69.41,216.14a1.13,1.13,0,0,0,.17.23c7.74,10.69,12.38,18.83,21.2,28.54-1.08-1.21-.38-.42,0,0h0S514.33,1234.63,784.55,1233.38Z" transform="translate(-99.21 -96.1)"/><path class="cls-1" d="M971.57,1210q11.17-12.29,21.24-25.65Q982.76,1197.65,971.57,1210Z" transform="translate(-99.21 -96.1)"/><path class="cls-1" d="M1034.21,1113.94a362.2,362.2,0,0,1-18.57,36.1A362.2,362.2,0,0,0,1034.21,1113.94Z" transform="translate(-99.21 -96.1)"/><path class="cls-1" d="M1064.85,931.86h0a369.52,369.52,0,0,0-17.91-87.3q2.65,8.69,4.9,17.18t4.1,16.83q1.86,8.32,3.35,16.46,1,5.43,1.83,10.78,1.67,10.7,2.73,21.05c.18,1.73.34,3.45.5,5.16.4,4.41.71,8.77,1,13.09.49,8.63.67,17.08.6,25.33q-.06,6.19-.32,12.24.53-9.82.52-19.79Q1066.11,947.2,1064.85,931.86Z" transform="translate(-99.21 -96.1)"/><path class="cls-1" d="M1065.31,946.91c-.25-4.32-.56-8.68-1-13.09-.16-1.71-.32-3.43-.5-5.16q-1.06-10.36-2.73-21-.84-5.36-1.83-10.78-1.5-8.13-3.35-16.46t-4.1-16.83q-2.25-8.5-4.9-17.18c-4.47-13.41-9.74-31.27-15.66-43.9-.08,16.51-1.73,78.28-20.23,147.3-26.21,97.66-86.07,219.48-222.64,285.11a1.29,1.29,0,0,0,.28,0l48.35-3.47,37.08-3.93,64.46-9.49q16.6-2.9,33-6.22,11.17-12.29,21.24-25.65-10,13.35-21.24,25.65l.21,0c12.23-12.25,88.13-93.42,93.81-227.23q.26-6,.32-12.24C1066,964,1065.8,955.54,1065.31,946.91Zm-49.67,204.93a362.2,362.2,0,0,0,18.57-36.1A362.2,362.2,0,0,1,1015.64,1151.84Z" transform="translate(-99.21 -96.1)"/><path class="cls-3" d="M854.09,832.74a33.78,33.78,0,1,1-33.78,33.77A33.78,33.78,0,0,1,854.09,832.74Z" transform="translate(-99.21 -96.1)"/><polygon class="cls-1" points="670.85 826.26 573.8 826.26 543.81 873.96 592.07 892.07 622.32 903.43 655.26 891.07 700.85 873.95 670.85 826.26"/><path class="cls-3" d="M723.89,603.56c-36.9.38-80.28,6.71-128.35,24.41-3.14,1.25-6.26,2.58-9.36,3.95,7.06,2.46,82.43,29.82,118.83,88.14a130.2,130.2,0,0,1,14,30.3s1.61-12.74,11.89-30.71c15-26.2,48.35-63.57,122-88.91A332.21,332.21,0,0,0,723.89,603.56Z" transform="translate(-99.21 -96.1)"/><path class="cls-3" d="M585.64,832.73a33.78,33.78,0,1,1-33.77,33.79A33.8,33.8,0,0,1,585.64,832.73Z" transform="translate(-99.21 -96.1)"/><path class="cls-1" d="M432.29,958.72c-21-73.18-22.54-134.35-22.54-151.47,0-3.12.06-4.79.06-4.79a483.23,483.23,0,0,0-16.54,46.38,412.21,412.21,0,0,0-17,94.92,372,372,0,0,0,3.69,78.3q1,6.8,2.32,13.37c.56,2.93,1.16,5.82,1.78,8.68.93,4.3,1.93,8.51,3,12.66s2.17,8.22,3.33,12.22q1.17,4,2.4,7.89c.41,1.3.83,2.59,1.25,3.88q1.26,3.84,2.58,7.59c.44,1.25.88,2.49,1.33,3.72q2.69,7.4,5.56,14.37a380.55,380.55,0,0,0,16.6,35.17q3.9,7.26,7.78,13.81l1.55,2.6q1.55,2.57,3.08,5c4.08,6.54,8.07,12.47,11.83,17.78a1.6,1.6,0,0,0,.16.23,358,358,0,0,0,24.88,30.61q16.16,3.31,32.53,6.21l48,7.48q22,3,44.44,5.19l57.21,4.33C519.58,1169.57,459.54,1054,432.29,958.72Z" transform="translate(-99.21 -96.1)"/><path class="cls-1" d="M430.16,1156.22l-1.55-2.59q-3.89-6.57-7.78-13.81a380.42,380.42,0,0,1-16.6-35.17q-2.87-7-5.56-14.37c-.45-1.24-.9-2.48-1.33-3.73-.88-2.49-1.74-5-2.59-7.59-.42-1.28-.83-2.57-1.24-3.87q-1.23-3.9-2.4-7.9-1.75-6-3.34-12.22t-3-12.65c-.63-2.86-1.22-5.76-1.78-8.68q-1.27-6.59-2.32-13.38A372.64,372.64,0,0,1,377,942,412.35,412.35,0,0,1,394,847a370.31,370.31,0,0,0-17.74,94.7q-.6,10.5-.6,21.14c0,81.14,25.84,156,69.41,216.14-3.76-5.3-7.74-11.24-11.82-17.78C432.21,1159.6,431.19,1157.93,430.16,1156.22Z" transform="translate(-99.21 -96.1)"/></svg>