<svg xmlns="http://www.w3.org/2000/svg" xmlns:xlink="http://www.w3.org/1999/xlink" viewBox="0 0 1366 768"><defs><style>.cls-1{fill:url(#linear-gradient);}.cls-2{isolation:isolate;}.cls-3{fill:#16162e;}.cls-4{fill:url(#linear-gradient-2);}.cls-5{mask:url(#mask);}.cls-6{fill:#6b2064;}.cls-7{fill:#669ff6;mix-blend-mode:soft-light;}.cls-8{fill:#ae76a6;}.cls-9{fill:url(#radial-gradient);}.cls-10{fill:url(#radial-gradient-2);}.cls-11{fill:url(#radial-gradient-3);}.cls-12{fill:url(#radial-gradient-4);}.cls-13{fill:url(#radial-gradient-5);}.cls-14{fill:url(#radial-gradient-6);}.cls-15{fill:url(#radial-gradient-7);}.cls-16{fill:url(#radial-gradient-8);}.cls-17{fill:url(#radial-gradient-9);}.cls-18{fill:url(#radial-gradient-10);}.cls-19{fill:url(#radial-gradient-11);}.cls-20{fill:url(#radial-gradient-12);}.cls-21{fill:url(#radial-gradient-13);}.cls-22{fill:url(#radial-gradient-14);}.cls-23{fill:url(#radial-gradient-15);}.cls-24{fill:url(#radial-gradient-16);}</style><linearGradient id="linear-gradient" x1="236.73" y1="917.28" x2="1028.9" y2="-60.4" gradientUnits="userSpaceOnUse"><stop offset="0.19" stop-color="#669ff6" stop-opacity="0.85"/><stop offset="0.24" stop-color="#6e9aed" stop-opacity="0.87"/><stop offset="0.46" stop-color="#8a8bce" stop-opacity="0.92"/><stop offset="0.66" stop-color="#9e7fb8" stop-opacity="0.97"/><stop offset="0.84" stop-color="#aa78ab" stop-opacity="0.99"/><stop offset="1" stop-color="#ae76a6"/></linearGradient><linearGradient id="linear-gradient-2" x1="405.44" y1="931.36" x2="960.37" y2="-197.99" gradientUnits="userSpaceOnUse"><stop offset="0.21" stop-color="#669ff6" stop-opacity="0.85"/><stop offset="0.29" stop-color="#7397e7" stop-opacity="0.88"/><stop offset="0.48" stop-color="#8d89cb" stop-opacity="0.93"/><stop offset="0.67" stop-color="#9f7eb6" stop-opacity="0.97"/><stop offset="0.84" stop-color="#aa78aa" stop-opacity="0.99"/><stop offset="1" stop-color="#ae76a6"/></linearGradient><mask id="mask" x="0" y="0" width="1366" height="768" maskUnits="userSpaceOnUse"><path class="cls-1" d="M0,725.47V0H683s116,143,371,122c0,0,250-10,312,102V733L0,725.47"/></mask><radialGradient id="radial-gradient" cx="666.74" cy="236.95" r="3.1" gradientTransform="matrix(2.1, 0.04, -0.04, 2.1, -653.37, -299.23)" gradientUnits="userSpaceOnUse"><stop offset="0.02" stop-color="#e2be78"/><stop offset="0.11" stop-color="#e3c17f" stop-opacity="0.95"/><stop offset="0.27" stop-color="#e7ca90" stop-opacity="0.82"/><stop offset="0.49" stop-color="#edd7ad" stop-opacity="0.61"/><stop offset="0.75" stop-color="#f6ead4" stop-opacity="0.32"/><stop offset="1" stop-color="#fff" stop-opacity="0"/></radialGradient><radialGradient id="radial-gradient-2" cx="701.33" cy="259.86" r="4.25" xlink:href="#radial-gradient"/><radialGradient id="radial-gradient-3" cx="796.64" cy="290.14" r="4.25" xlink:href="#radial-gradient"/><radialGradient id="radial-gradient-4" cx="750.76" cy="250.78" r="4.25" xlink:href="#radial-gradient"/><radialGradient id="radial-gradient-5" cx="677.12" cy="287.59" r="3.14" xlink:href="#radial-gradient"/><radialGradient id="radial-gradient-6" cx="847.87" cy="298.52" r="3.14" xlink:href="#radial-gradient"/><radialGradient id="radial-gradient-7" cx="786.22" cy="254.62" r="3.14" xlink:href="#radial-gradient"/><radialGradient id="radial-gradient-8" cx="615.67" cy="248.08" r="3.14" xlink:href="#radial-gradient"/><radialGradient id="radial-gradient-9" cx="724.92" cy="298.43" r="4.07" xlink:href="#radial-gradient"/><radialGradient id="radial-gradient-10" cx="763.26" cy="293.92" r="5.57" xlink:href="#radial-gradient"/><radialGradient id="radial-gradient-11" cx="718.05" cy="227.68" r="5.57" xlink:href="#radial-gradient"/><radialGradient id="radial-gradient-12" cx="754.94" cy="278.28" r="2.93" xlink:href="#radial-gradient"/><radialGradient id="radial-gradient-13" cx="829.48" cy="267.11" r="2.93" xlink:href="#radial-gradient"/><radialGradient id="radial-gradient-14" cx="567.14" cy="285.92" r="2.93" xlink:href="#radial-gradient"/><radialGradient id="radial-gradient-15" cx="604.61" cy="303.89" r="2.93" xlink:href="#radial-gradient"/><radialGradient id="radial-gradient-16" cx="645.06" cy="273.68" r="2.93" xlink:href="#radial-gradient"/></defs><g class="cls-2"><g id="Layer_2" data-name="Layer 2"><g id="Layer_1-2" data-name="Layer 1"><rect class="cls-3" width="1366" height="768"/><path class="cls-4" d="M0,725.47V0H683s116,143,371,122c0,0,250-10,312,102V733L0,725.47"/><g class="cls-5"><path class="cls-6" d="M0,768V483l71.72,76.6,107.54-54.26,67.21-99.47L374.16,329l87.37,54.26,67.21,76.87,33.61,72.34,147.86-126.6L764,491.78l40.32-22.61L885,577.69,972,731s-32,32.48-32,37Z"/><polygon id="highlight" class="cls-7" points="0 483 71.72 559.6 179.26 505.34 246.47 405.87 374.16 329 461.54 383.26 528.74 460.13 562.35 532.47 710.21 405.87 763.98 491.78 804.3 469.17 884.95 577.69 972 731 944 768 0 768 0 483"/><polyline class="cls-8" points="0 483 0 538 0 549 0 624 71.72 559.6"/><polygon class="cls-8" points="461.54 383.26 461.54 460.13 481.7 451.08 481.7 586.73 508.58 568.64 543.23 657.23 562.35 532.47 528.74 460.13 461.54 383.26"/><polygon class="cls-8" points="374.16 329 327.12 428.48 374.16 419.43 313.67 514.39 360.72 509.86 266.63 600.3 488.42 473.69 461.54 383.26 374.16 329"/><polygon class="cls-8" points="710.21 405.87 673.69 517.45 703.56 507.8 673.69 590.2 691.41 586.15 685.04 643.25 763.98 491.78 710.21 405.87"/><polygon class="cls-8" points="804.3 469.17 772.86 541.51 800.94 641.64 972 731 886.24 579.79 875.23 564.61 839.63 516.71 804.3 469.17"/></g><g id="strs"><polygon class="cls-9" points="738.17 232.29 735.79 228.12 731.54 225.89 735.7 223.52 737.93 219.27 740.31 223.44 744.56 225.66 740.4 228.04 738.17 232.29"/><polygon class="cls-10" points="810.01 284.25 806.74 278.52 800.9 275.46 806.62 272.2 809.67 266.37 812.94 272.09 818.78 275.15 813.06 278.41 810.01 284.25"/><polygon class="cls-11" points="1009.05 351.76 1005.77 346.04 999.94 342.98 1005.65 339.72 1008.7 333.89 1011.98 339.61 1017.81 342.67 1012.1 345.93 1009.05 351.76"/><polygon class="cls-12" points="914.16 267.21 910.89 261.49 905.05 258.43 910.77 255.17 913.82 249.34 917.09 255.06 922.93 258.12 917.21 261.38 914.16 267.21"/><polygon class="cls-13" points="758.08 339.15 755.66 334.92 751.35 332.66 755.58 330.26 757.83 325.95 760.24 330.18 764.55 332.43 760.33 334.84 758.08 339.15"/><polygon class="cls-14" points="1116.29 369.14 1113.88 364.91 1109.57 362.65 1113.79 360.24 1116.04 355.94 1118.45 360.16 1122.77 362.42 1118.54 364.83 1116.29 369.14"/><polygon class="cls-15" points="988.45 274.41 986.03 270.18 981.72 267.93 985.94 265.52 988.2 261.21 990.61 265.44 994.92 267.69 990.7 270.1 988.45 274.41"/><polygon class="cls-16" points="630.51 253.65 628.09 249.42 623.78 247.16 628 244.76 630.25 240.45 632.67 244.68 636.98 246.94 632.76 249.34 630.51 253.65"/><polygon class="cls-17" points="858.1 365.85 854.97 360.37 849.38 357.45 854.86 354.32 857.78 348.74 860.91 354.22 866.5 357.15 861.02 360.27 858.1 365.85"/><polygon class="cls-18" points="938.85 361.11 934.57 353.61 926.91 349.6 934.41 345.32 938.4 337.68 942.69 345.18 950.34 349.19 942.85 353.46 938.85 361.11"/><polygon class="cls-19" points="846.4 220.14 842.11 212.64 834.46 208.63 841.95 204.36 845.95 196.71 850.24 204.21 857.89 208.22 850.39 212.5 846.4 220.14"/><polygon class="cls-20" points="921.86 322.36 919.61 318.42 915.59 316.31 919.52 314.06 921.62 310.05 923.88 313.99 927.9 316.09 923.96 318.34 921.86 322.36"/><polygon class="cls-21" points="1078.83 301.96 1076.58 298.02 1072.56 295.92 1076.49 293.67 1078.59 289.65 1080.85 293.59 1084.87 295.7 1080.93 297.94 1078.83 301.96"/><polygon class="cls-22" points="527.15 330.69 524.9 326.75 520.88 324.64 524.81 322.4 526.91 318.38 529.16 322.32 533.18 324.43 529.25 326.67 527.15 330.69"/><polygon class="cls-23" points="605.16 369.97 602.91 366.03 598.89 363.92 602.83 361.68 604.93 357.66 607.18 361.6 611.2 363.7 607.26 365.95 605.16 369.97"/><polygon class="cls-24" points="691.26 308.19 689.01 304.25 684.99 302.14 688.93 299.9 691.03 295.88 693.28 299.82 697.3 301.93 693.36 304.17 691.26 308.19"/></g></g></g></g></svg>